<?xml version="1.0" encoding="UTF-8" standalone="no"?>
<svg xmlns:dc="http://purl.org/dc/elements/1.1/" xmlns:cc="http://creativecommons.org/ns#" xmlns:rdf="http://www.w3.org/1999/02/22-rdf-syntax-ns#" xmlns:svg="http://www.w3.org/2000/svg" xmlns="http://www.w3.org/2000/svg" xmlns:xlink="http://www.w3.org/1999/xlink" xmlns:sodipodi="http://sodipodi.sourceforge.net/DTD/sodipodi-0.dtd" xmlns:inkscape="http://www.inkscape.org/namespaces/inkscape" viewBox="0 0 198 33.999999" version="1.1" id="svg6223" sodipodi:docname="icons_1.svg" width="198" height="34" inkscape:version="0.92.3 (2405546, 2018-03-11)">
  <metadata id="metadata6227">
    <rdf:RDF>
      <cc:Work rdf:about="">
        <dc:format>image/svg+xml</dc:format>
        <dc:type rdf:resource="http://purl.org/dc/dcmitype/StillImage"/>
        <dc:title/>
      </cc:Work>
    </rdf:RDF>
  </metadata>
  <sodipodi:namedview pagecolor="#ffffff" bordercolor="#666666" borderopacity="1" objecttolerance="10" gridtolerance="10" guidetolerance="10" inkscape:pageopacity="0" inkscape:pageshadow="2" inkscape:window-width="1299" inkscape:window-height="745" id="namedview6225" showgrid="false" inkscape:zoom="1.7389769" inkscape:cx="158.99928" inkscape:cy="66.507045" inkscape:window-x="59" inkscape:window-y="-8" inkscape:window-maximized="1" inkscape:current-layer="svg6223" showguides="false" inkscape:guide-bbox="true">
    <sodipodi:guide position="180.1562,105.51268" orientation="0,1" id="guide6847" inkscape:locked="false"/>
  </sodipodi:namedview>
  <defs id="defs6211">
    <path id="a" d="m 258.6,52.4 c -0.3,22.4 20,34.9 35.2,42.3 15.7,7.6 20.9,12.5 20.9,19.3 -0.1,10.4 -12.5,15 -24.1,15.2 -20.2,0.3 -32,-5.5 -41.3,-9.8 l -7.3,34.1 c 9.4,4.3 26.7,8.1 44.7,8.3 42.3,0 69.9,-20.9 70.1,-53.2 0.2,-41 -56.8,-43.3 -56.4,-61.7 0.1,-5.6 5.4,-11.5 17.1,-13 5.8,-0.8 21.7,-1.3 39.7,7 l 7.1,-33 C 354.5,4.4 342,1 326.5,1 286.8,1 258.8,22.1 258.6,52.4 M 432.2,3.8 c -7.7,0 -14.2,4.5 -17.1,11.4 l -60.4,144.1 h 42.2 l 8.4,-23.2 h 51.6 l 4.9,23.2 H 499 L 466.5,3.8 h -34.3 m 5.9,42.1 12.2,58.4 H 416.9 L 438.1,45.9 M 207.4,3.8 174.1,159.4 h 40.2 L 247.6,3.8 H 207.4 M 147.8,3.8 105.9,109.7 89,19.7 C 87,9.7 79.2,3.8 70.4,3.8 H 2 L 1,8.4 c 14.1,3.1 30,8 39.7,13.2 5.9,3.2 7.6,6 9.6,13.7 l 32.1,124.1 h 42.5 L 190.1,3.8 h -42.3" inkscape:connector-curvature="0"/>
    <clipPath id="clipPath18">
      <path inkscape:connector-curvature="0" id="path190" d="M 0,857.88 H 950 V 7.88 H 0 Z"/>
    </clipPath>
    <clipPath id="clipPath46">
      <path inkscape:connector-curvature="0" id="path193" d="M 689.45,396.36 H 258.87 c -28.641,34.102 -49.34,75.153 -59.223,120.23 h 256.56 c 24.769,-14.02 53.359,-22.031 83.867,-22.031 30.512,0 59.141,8.011 83.902,22.031 h 124.69 c -9.883,-45.078 -30.582,-86.129 -59.223,-120.23 m 59.301,240.51 h -40.551 c 1.531,9.141 2.313,18.469 2.313,28.039 0,33.988 -9.922,65.59 -27.071,92.192 h 6.36 v 0.039 c 28.558,-34.18 49.179,-75.243 58.949,-120.27 m -549.18,0 c 9.77,45.027 30.391,86.09 58.95,120.27 0,-0.039 0,-0.039 -0.04,-0.039 h 138.32 c -17.153,-26.602 -27.071,-58.204 -27.071,-92.192 0,-9.57 0.782,-18.898 2.301,-28.039 h -172.46"/>
    </clipPath>
    <clipPath id="clipPath52">
      <path inkscape:connector-curvature="0" id="path196" d="m 190,757.88 h 560 v -370 H 190 Z"/>
    </clipPath>
    <linearGradient gradientUnits="userSpaceOnUse" gradientTransform="matrix(561.95,0,0,-561.95,193.17,576.75)" x2="1" id="linearGradient56">
      <stop id="stop199" offset="0" stop-color="#faa61a"/>
      <stop id="stop201" offset="1" stop-color="#ffe100"/>
    </linearGradient>
    <clipPath id="clipPath74">
      <path inkscape:connector-curvature="0" id="path204" d="m 360,757.88 h 360 v -270 H 360 Z"/>
    </clipPath>
    <clipPath id="clipPath98">
      <path inkscape:connector-curvature="0" id="path207" d="m 193.16,576.94 c 0,-155.19 125.79,-280.97 281.02,-280.97 155.16,0 280.98,125.78 280.98,280.97 0,155.2 -125.82,280.98 -280.98,280.98 -155.23,0 -281.02,-125.78 -281.02,-280.98"/>
    </clipPath>
    <clipPath id="clipPath104">
      <path inkscape:connector-curvature="0" id="path210" d="M 0,857.88 H 950 V 7.88 H 0 Z"/>
    </clipPath>
    <clipPath id="clipPath110">
      <path inkscape:connector-curvature="0" id="path213" d="m 190,857.88 h 570 v -570 H 190 Z"/>
    </clipPath>
    <clipPath id="clipPath126">
      <path inkscape:connector-curvature="0" id="path216" d="m 370,637.88 h 340 v -130 H 370 Z"/>
    </clipPath>
    <clipPath id="clipPath132">
      <path inkscape:connector-curvature="0" id="path219" d="M 369.73,835.26 H 710.51 V 494.56 H 369.73 Z"/>
    </clipPath>
    <clipPath id="clipPath138">
      <path inkscape:connector-curvature="0" id="path222" d="m 360,837.88 h 360 v -350 H 360 Z"/>
    </clipPath>
    <radialGradient gradientUnits="userSpaceOnUse" gradientTransform="matrix(170.38,0,0,-170.38,540.12,664.91)" r="1" cy="0" cx="0" id="radialGradient142">
      <stop id="stop225" offset="0" stop-color="#363738"/>
      <stop id="stop227" offset="1"/>
    </radialGradient>
    <clipPath id="clipPath154">
      <path inkscape:connector-curvature="0" id="path230" d="M 683.44,757.1 H 396.8 c 30.308,47.027 83.16,78.16 143.28,78.16 60.152,0 113.05,-31.133 143.36,-78.16"/>
    </clipPath>
    <clipPath id="clipPath160">
      <path inkscape:connector-curvature="0" id="path233" d="m 390,837.88 h 300 v -90 H 390 Z"/>
    </clipPath>
    <clipPath id="clipPath166">
      <path inkscape:connector-curvature="0" id="path236" d="M 369.73,835.26 H 710.51 V 494.56 H 369.73 Z"/>
    </clipPath>
    <clipPath id="clipPath172">
      <path inkscape:connector-curvature="0" id="path239" d="m 360,837.88 h 360 v -350 H 360 Z"/>
    </clipPath>
    <clipPath id="clipPath4825">
      <circle style="opacity:0.497" id="circle242" r="170.39" cy="-665.20001" cx="539.92999" transform="scale(1,-1)"/>
    </clipPath>
    <radialGradient xlink:href="#radialGradient142" gradientUnits="userSpaceOnUse" gradientTransform="matrix(170.38,0,0,-170.38,540.12,664.91)" r="1" cy="0" cx="0" id="radialGradient4666"/>
    <linearGradient id="a-9" x1="570.90002" x2="809" y1="183" y2="183" gradientTransform="matrix(1,0,0,-1,0,230)" gradientUnits="userSpaceOnUse">
      <stop offset=".3" stop-color="#00b4e6" id="stop7016"/>
      <stop offset="1" stop-color="#088ccb" id="stop7018"/>
    </linearGradient>
    <linearGradient inkscape:collect="always" xlink:href="#a-9" id="linearGradient7746" gradientUnits="userSpaceOnUse" gradientTransform="matrix(1,0,0,-1,0,230)" x1="570.90002" y1="183" x2="809" y2="183"/>
  </defs>
  <clipPath id="b">
    <use overflow="visible" xlink:href="#a" id="use6213" style="overflow:visible" x="0" y="0" width="100%" height="100%"/>
  </clipPath>
  <linearGradient id="c" x1="212.04938" x2="213.58701" y1="118.22826" y2="118.258" gradientTransform="matrix(419.70701,-154.57183,-154.57183,-419.70701,-70900.522,82651.457)" gradientUnits="userSpaceOnUse" xlink:href="#a-9">
    <stop offset="0" stop-color="#222357" id="stop6216" style="stop-color:#007ac4;stop-opacity:1"/>
    <stop offset="1" stop-color="#254aa5" id="stop6218"/>
  </linearGradient>
  <style id="style34" type="text/css">
	.st0{fill:#E30613;}
	.st1{fill:#FFFFFF;}
</style>
  <g id="g8230" transform="translate(131.66231,-174.827)">
    <rect y="174.827" x="-131.66231" height="34" width="198" id="rect7744" style="opacity:0;fill:#ffffff;fill-opacity:1;stroke:none;stroke-width:0.27453628;stroke-miterlimit:4;stroke-dasharray:none;stroke-dashoffset:0;stroke-opacity:1"/>
    <g transform="matrix(0.18621464,0,0,0.18621464,-37.15179,179.90761)" id="g6488">
      <path style="fill:#ff5f00" inkscape:connector-curvature="0" d="M 126.9,110.4 H 72.8 V 13.2 h 54.1 z" id="path6471"/>
      <path style="fill:#eb001b" inkscape:connector-curvature="0" d="M 76.3,61.8 C 76.3,42.1 85.5,24.5 99.9,13.2 89.4,4.9 76.1,-0.1 61.7,-0.1 c -34.2,0 -61.8,27.7 -61.8,61.9 0,34.2 27.7,61.8 61.8,61.8 14.4,0 27.7,-4.9 38.2,-13.2 C 85.5,99 76.3,81.5 76.3,61.8" id="path6473"/>
      <path style="fill:#f79e1b" inkscape:connector-curvature="0" d="m 199.8,61.8 c 0,34.1 -27.7,61.8 -61.8,61.8 -14.4,0 -27.7,-4.9 -38.2,-13.2 14.4,-11.3 23.6,-28.9 23.6,-48.6 0,-19.7 -9.2,-37.3 -23.6,-48.6 10.5,-8.3 23.8,-13.3 38.2,-13.3 34.1,0 61.8,27.7 61.8,61.9" id="path6475"/>
    </g>
    <path transform="matrix(0.09625333,0,0,0.09625333,-96.074675,183.57134)" inkscape:connector-curvature="0" style="fill:url(#c);fill-opacity:1" id="path6221" clip-path="url(#b)" d="M -51.1,20.2 439.6,-160.5 551.2,142.6 60.5,323.3"/>
    <g id="g425" style="fill:none;fill-rule:evenodd" transform="matrix(1.0789481,0,0,1.0789481,-135.98387,173.34062)">
      <g id="g1241">
        <path inkscape:connector-curvature="0" style="fill:#48b254;fill-opacity:1" id="path423" d="m 22.681,7.368 0.945,0.858 -11.932,6.812 -5.776,-3.325 0.54,-1.073 5.236,2.977 10.987,-6.25 z M 20.279,6 21.547,6.644 11.694,12.276 7.106,9.674 7.888,8.736 11.694,10.908 20.28,6 Z m 4.184,3.111 0.701,0.939 -13.47,7.697 -6.505,-3.701 0.297,-1.18 6.208,3.54 z m 1.943,3.46 c 0.396,1.109 0.594,2.27 0.594,3.486 0,1.216 -0.198,2.397 -0.594,3.54 l -0.27,0.725 a 11.142,11.142 0 0 1 -2.348,3.486 10.85,10.85 0 0 1 -3.51,2.307 C 18.893,26.705 17.463,27 15.987,27 14.493,27 13.062,26.705 11.694,26.115 A 11.341,11.341 0 0 1 8.212,23.808 10.568,10.568 0 0 1 5.864,20.322 C 5.294,18.972 4.999,17.522 5,16.057 v -0.724 l 6.694,3.782 14.118,-8.046 z"/>
      </g>
    </g>
    <g id="g7035" transform="matrix(0.06187379,0,0,0.06187379,10.927746,184.32182)">
      <path d="M 731,0 H 570.9 c 8,43.6 40.7,78.6 83,90 9.6,2.6 19.7,4 30.1,4 H 807.4 C 808.5,88.8 809,83.5 809,78 809,34.9 774.1,0 731,0 Z" id="path7021" inkscape:connector-curvature="0" style="fill:url(#linearGradient7746)"/>
      <path d="m 218,0 v 0.1 c -0.1,0 -31.6,-0.1 -40,30 -7.7,27.6 -29.4,103.8 -30,105.9 h -6 C 142,136 119.8,58.1 112,30 103.6,-0.1 72,0 72,0 H 0 V 229 H 72 V 93 h 6 l 42,136 h 50 L 212,93.1 h 6 V 229 h 72 V 0 Z m 263,0 c 0,0 -21.1,1.9 -31,24 l -51,112 h -6 V 0 h -72 v 229 h 68 c 0,0 22.1,-2 32,-24 L 471,93 h 6 v 136 h 72 V 0 Z m 100,104 v 125 h 72 v -73 h 78 c 34,0 62.8,-21.7 73.5,-52 z" id="path7023" inkscape:connector-curvature="0" style="fill:#4db45e"/>
    </g>
  </g>
</svg>