<?xml version="1.0" encoding="UTF-8" standalone="no"?>
<svg xmlns:dc="http://purl.org/dc/elements/1.1/" xmlns:cc="http://creativecommons.org/ns#" xmlns:rdf="http://www.w3.org/1999/02/22-rdf-syntax-ns#" xmlns:svg="http://www.w3.org/2000/svg" xmlns="http://www.w3.org/2000/svg" xmlns:sodipodi="http://sodipodi.sourceforge.net/DTD/sodipodi-0.dtd" xmlns:inkscape="http://www.inkscape.org/namespaces/inkscape" version="1.1" id="Capa_1" x="0px" y="0px" viewBox="0 0 24.797165 32.17305" xml:space="preserve" sodipodi:docname="pdf.svg" inkscape:version="0.92.3 (2405546, 2018-03-11)" width="24.797165" height="32.17305"><metadata id="metadata395"><rdf:RDF><cc:Work rdf:about=""><dc:format>image/svg+xml</dc:format><dc:type rdf:resource="http://purl.org/dc/dcmitype/StillImage"/><dc:title/></cc:Work></rdf:RDF></metadata><defs id="defs393">
	
	
	
	
	
</defs><sodipodi:namedview pagecolor="#ffffff" bordercolor="#666666" borderopacity="1" objecttolerance="10" gridtolerance="10" guidetolerance="10" inkscape:pageopacity="0" inkscape:pageshadow="2" inkscape:window-width="1299" inkscape:window-height="745" id="namedview391" showgrid="false" inkscape:zoom="14.546197" inkscape:cx="21.44368" inkscape:cy="14.933222" inkscape:window-x="59" inkscape:window-y="-8" inkscape:window-maximized="1" inkscape:current-layer="Capa_1"/>















<g id="g1329" transform="translate(-14.866253,-7.7801417)"><path style="fill:#e9e9e0;stroke:#999999;stroke-width:0.40000001;stroke-linecap:butt;stroke-linejoin:round;stroke-miterlimit:1;stroke-dasharray:none" d="M 32.362707,7.9801417 H 15.896324 c -0.45844,0 -0.830071,0.3716312 -0.830071,1.092766 V 39.185816 c 0,0.195744 0.371631,0.567376 0.830071,0.567376 h 22.737022 c 0.458439,0 0.830071,-0.371632 0.830071,-0.567376 v -23.84227 c 0,-0.394894 -0.05277,-0.521986 -0.145816,-0.615603 L 32.715615,8.1259573 c -0.09362,-0.09305 -0.220709,-0.1458156 -0.352908,-0.1458156 z" id="path342" inkscape:connector-curvature="0"/><polygon transform="matrix(0.56737589,0,0,0.56737589,11.37831,7.9801417)" style="fill:#999999" points="37.5,12 49.349,12 37.5,0.151 " id="polygon344"/><path style="fill:#cc4b4c;stroke-width:0.619425" d="m 21.70149,27.712334 v 0 c -0.21556,0 -0.422447,-0.06999 -0.598983,-0.201933 -0.644823,-0.483771 -0.731541,-1.022051 -0.690659,-1.38875 0.112735,-1.008424 1.359638,-2.063925 3.707258,-3.139246 0.931616,-2.041625 1.818012,-4.557111 2.346382,-6.658819 -0.618186,-1.345392 -1.219029,-3.090932 -0.781095,-4.114841 0.153617,-0.358647 0.345019,-0.633672 0.702428,-0.752601 0.141229,-0.04708 0.498018,-0.106543 0.629336,-0.106543 0.31219,0 0.586595,0.402007 0.781094,0.649778 0.182731,0.232903 0.597127,0.726585 -0.231045,4.213328 0.834985,1.724479 2.018087,3.481169 3.151635,4.684092 0.812065,-0.146803 1.510777,-0.221754 2.080029,-0.221754 0.970019,0 1.557854,0.226091 1.797572,0.691897 0.198215,0.385283 0.117071,0.835605 -0.241577,1.337959 -0.345019,0.482532 -0.820738,0.737735 -1.375123,0.737735 -0.753221,0 -1.630327,-0.475719 -2.608398,-1.415386 -1.75731,0.367319 -3.809465,1.022671 -5.468285,1.748018 -0.517839,1.09886 -1.013999,1.984018 -1.476089,2.633175 -0.634912,0.888875 -1.182483,1.30389 -1.72448,1.303891 z m 1.64891,-3.175173 c -1.323712,0.743929 -1.863231,1.355301 -1.902255,1.699702 -0.0062,0.05699 -0.02292,0.206888 0.266972,0.428643 0.0923,-0.02912 0.631194,-0.275025 1.635283,-2.128345 z m 8.447099,-2.751486 c 0.504831,0.38838 0.628097,0.584737 0.95825,0.584737 0.144945,0 0.558102,-0.0062 0.749504,-0.273167 0.0923,-0.129459 0.128221,-0.212462 0.142469,-0.257061 -0.07619,-0.04026 -0.177157,-0.122027 -0.727825,-0.122027 -0.31281,6.21e-4 -0.706145,0.01425 -1.122398,0.06751 z m -4.627105,-4.077056 c -0.442889,1.532458 -1.027627,3.186942 -1.656343,4.685331 1.294598,-0.502353 2.701932,-0.940907 4.023786,-1.251238 -0.836225,-0.971258 -1.671829,-2.184092 -2.367443,-3.434093 z m -0.375991,-5.241574 c -0.0607,0.02044 -0.823835,1.08833 0.05947,1.992071 0.587833,-1.310084 -0.03283,-2.000743 -0.05947,-1.992071 z" id="path346" inkscape:connector-curvature="0"/><path style="fill:#cc4b4c;stroke-width:0.5673759" d="M 38.633346,39.753192 H 15.896324 c -0.45844,0 -0.830071,-0.371632 -0.830071,-0.830071 v -8.81532 h 24.397164 v 8.81532 c 0,0.458439 -0.371632,0.830071 -0.830071,0.830071 z" id="path348" inkscape:connector-curvature="0"/><g transform="matrix(0.56737589,0,0,0.56737589,11.37831,7.9801417)" id="g356">
		<path style="fill:#ffffff" d="M 17.385,53 H 15.744 V 42.924 h 2.898 c 0.428,0 0.852,0.068 1.271,0.205 0.419,0.137 0.795,0.342 1.128,0.615 0.333,0.273 0.602,0.604 0.807,0.991 0.205,0.387 0.308,0.822 0.308,1.306 0,0.511 -0.087,0.973 -0.26,1.388 -0.173,0.415 -0.415,0.764 -0.725,1.046 -0.31,0.282 -0.684,0.501 -1.121,0.656 -0.437,0.155 -0.921,0.232 -1.449,0.232 H 17.384 V 53 Z m 0,-8.832 v 3.992 h 1.504 c 0.2,0 0.398,-0.034 0.595,-0.103 0.196,-0.068 0.376,-0.18 0.54,-0.335 0.164,-0.155 0.296,-0.371 0.396,-0.649 0.1,-0.278 0.15,-0.622 0.15,-1.032 0,-0.164 -0.023,-0.354 -0.068,-0.567 -0.046,-0.214 -0.139,-0.419 -0.28,-0.615 -0.142,-0.196 -0.34,-0.36 -0.595,-0.492 -0.255,-0.132 -0.593,-0.198 -1.012,-0.198 h -1.23 z" id="path350" inkscape:connector-curvature="0"/>
		<path style="fill:#ffffff" d="m 32.219,47.682 c 0,0.829 -0.089,1.538 -0.267,2.126 -0.178,0.588 -0.403,1.08 -0.677,1.477 -0.274,0.397 -0.581,0.709 -0.923,0.937 -0.342,0.228 -0.672,0.398 -0.991,0.513 -0.319,0.114 -0.611,0.187 -0.875,0.219 C 28.222,52.984 28.026,53 27.898,53 H 24.084 V 42.924 h 3.035 c 0.848,0 1.593,0.135 2.235,0.403 0.642,0.268 1.176,0.627 1.6,1.073 0.424,0.446 0.74,0.955 0.95,1.524 0.21,0.57 0.315,1.156 0.315,1.758 z m -4.867,4.115 c 1.112,0 1.914,-0.355 2.406,-1.066 0.492,-0.711 0.738,-1.741 0.738,-3.09 0,-0.419 -0.05,-0.834 -0.15,-1.244 -0.101,-0.41 -0.294,-0.781 -0.581,-1.114 -0.287,-0.333 -0.677,-0.602 -1.169,-0.807 -0.492,-0.205 -1.13,-0.308 -1.914,-0.308 h -0.957 v 7.629 z" id="path352" inkscape:connector-curvature="0"/>
		<path style="fill:#ffffff" d="m 36.266,44.168 v 3.172 h 4.211 v 1.121 H 36.266 V 53 H 34.598 V 42.924 H 40.9 v 1.244 z" id="path354" inkscape:connector-curvature="0"/>
	</g><g transform="matrix(0.56737589,0,0,0.56737589,11.37831,7.9801417)" id="g360">
</g><g transform="matrix(0.56737589,0,0,0.56737589,11.37831,7.9801417)" id="g362">
</g><g transform="matrix(0.56737589,0,0,0.56737589,11.37831,7.9801417)" id="g364">
</g><g transform="matrix(0.56737589,0,0,0.56737589,11.37831,7.9801417)" id="g366">
</g><g transform="matrix(0.56737589,0,0,0.56737589,11.37831,7.9801417)" id="g368">
</g><g transform="matrix(0.56737589,0,0,0.56737589,11.37831,7.9801417)" id="g370">
</g><g transform="matrix(0.56737589,0,0,0.56737589,11.37831,7.9801417)" id="g372">
</g><g transform="matrix(0.56737589,0,0,0.56737589,11.37831,7.9801417)" id="g374">
</g><g transform="matrix(0.56737589,0,0,0.56737589,11.37831,7.9801417)" id="g376">
</g><g transform="matrix(0.56737589,0,0,0.56737589,11.37831,7.9801417)" id="g378">
</g><g transform="matrix(0.56737589,0,0,0.56737589,11.37831,7.9801417)" id="g380">
</g><g transform="matrix(0.56737589,0,0,0.56737589,11.37831,7.9801417)" id="g382">
</g><g transform="matrix(0.56737589,0,0,0.56737589,11.37831,7.9801417)" id="g384">
</g><g transform="matrix(0.56737589,0,0,0.56737589,11.37831,7.9801417)" id="g386">
</g><g transform="matrix(0.56737589,0,0,0.56737589,11.37831,7.9801417)" id="g388">
</g></g>
</svg>