<svg xmlns="http://www.w3.org/2000/svg" width="30" height="27" viewBox="0 0 30 27">
    <path fill="#32A9DD" fill-rule="nonzero" d="M14.766 12.47c-.84.587-1.67 1.174-2.51 1.75-.85.587-1.739 1.124-2.599 1.69-.927.597-1.921.81-2.974.638-2.105-.334-4.085-1.093-5.988-2.085a1.747 1.747 0 0 1-.521-.415c-.232-.283-.232-.536 0-.82.183-.232.434-.374.676-.515 1.12-.648 2.279-1.225 3.438-1.781.927-.456 1.864-.87 2.8-1.306.821-.374 1.642-.759 2.463-1.123a472.13 472.13 0 0 1 3.95-1.74 617.196 617.196 0 0 1 9.522-4.068c1.198-.496 2.396-.982 3.603-1.467a5.343 5.343 0 0 1 1.67-.375c.464-.02.928.01 1.295.354.299.284.434.638.405 1.073-.029.435-.058.87-.096 1.295-.078.931-.194 1.862-.329 2.793-.241 1.72-.483 3.44-.734 5.17-.116.81-.241 1.61-.367 2.42-.01.07-.01.151-.019.222-.135.81-.26 1.609-.396 2.418-.377 2.307-.744 4.604-1.12 6.911-.078.476-.145.952-.242 1.417-.328 1.71-2.26 2.5-3.64 1.508-2.386-1.71-4.79-3.4-7.186-5.1-.724-.516-1.43-1.063-2.163-1.558-.637-.436-.792-1.205-.608-1.842.202-.688.608-1.224 1.1-1.7.918-.89 1.816-1.78 2.734-2.682l.058-.03c1.738-1.66 3.496-3.289 5.089-5.09a.978.978 0 0 0 .222-.435c.039-.152.106-.324-.029-.455-.125-.122-.29-.06-.434-.01-.367.121-.705.334-1.034.546-1.313.87-2.559 1.842-3.834 2.773-.734.516-1.468 1.072-2.202 1.619z"/>
</svg>